<svg width="33" height="32" viewBox="0 0 33 32" fill="none" xmlns="http://www.w3.org/2000/svg">
<path fill-rule="evenodd" clip-rule="evenodd" d="M10.7507 7.00001H11.1649H27.1649H28.1649V8.00001V24V25H27.1649H11.1649H10.7507L10.4578 24.7071L2.45784 16.7071L1.75073 16L2.45784 15.2929L10.4578 7.2929L10.7507 7.00001ZM11.5792 9.00001L4.57916 16L11.5792 23H26.1649V9.00001H11.5792ZM15.1649 11.5858L15.8721 12.2929L18.165 14.5858L20.4578 12.2929L21.1649 11.5858L22.5792 13L21.8721 13.7071L19.5792 16L21.8721 18.2929L22.5792 19L21.1649 20.4142L20.4578 19.7071L18.165 17.4142L15.8721 19.7071L15.1649 20.4142L13.7507 19L14.4578 18.2929L16.7507 16L14.4578 13.7071L13.7507 13L15.1649 11.5858Z" fill="white"/>
</svg>
